<svg width="37" height="36" viewBox="0 0 37 36" fill="none" xmlns="http://www.w3.org/2000/svg">
<path d="M34.4025 15.7093L4.27922 1.05476C2.47166 0.175402 0.641957 2.21285 1.70991 3.9158L10.2034 17.4595L1.55038 32.0241C0.524972 33.75 2.39755 35.7418 4.18343 34.8247L34.4412 19.2869C35.9074 18.534 35.8847 16.4304 34.4025 15.7093Z" fill="#22BC97"/>
<path d="M10.2034 17.4595L1.55038 32.0241C0.524972 33.75 2.39755 35.7418 4.18343 34.8247L34.4412 19.2869C35.9074 18.534 35.8847 16.4304 34.4025 15.7093L4.27922 1.05476C2.47166 0.175402 0.641957 2.21285 1.70991 3.9158L10.2034 17.4595ZM10.2034 17.4595H19.6949" stroke="#FEE1FB"/>
</svg>
