<svg width="27" height="26" viewBox="0 0 27 26" fill="none" xmlns="http://www.w3.org/2000/svg">
<path d="M21.5189 0.999999H24C25.1046 0.999999 26 1.89543 26 3L26 12.253C26 13.3576 25.1046 14.253 24 14.253L21.5189 14.253M21.5189 0.999999L21.5189 14.253M21.5189 0.999999L9.25472 0.999999H6.77359C5.66902 0.999999 4.77359 1.89543 4.77359 3V4.31325M21.5189 14.253L16.8127 14.5262C16.4916 14.5448 16.1705 14.5913 15.8572 14.664V14.664C14.4981 14.9796 13.2946 15.7906 12.4975 16.9358V16.9358C12.0695 17.5507 11.7685 18.2449 11.612 18.9776L11.498 19.5113C11.2628 20.6128 11.2531 21.7506 11.4695 22.856L11.8491 24.7952V24.7952C10.4078 25.4645 8.68382 24.8334 7.98529 23.4061V23.4061C7.29444 21.9944 7.1806 20.3454 7.68711 18.8576L9.25472 14.253L5.01512 14.253C4.10019 14.253 3.35849 13.5113 3.35849 12.5964V12.5964C3.35849 11.6815 4.10019 10.9398 5.01512 10.9398L9.25472 10.9398L2.65663 10.9398C1.7417 10.9398 1 10.1981 1 9.28313V9.0416C1 8.26006 1.63356 7.62651 2.41509 7.62651V7.62651M6.89623 7.62651H4.77359H2.41509M2.41509 7.62651V6.31325C2.41509 5.20868 3.31053 4.31325 4.4151 4.31325H4.77359M9.25472 4.31325H4.77359" stroke="black"/>
</svg>
