<svg width="27" height="26" viewBox="0 0 27 26" fill="none" xmlns="http://www.w3.org/2000/svg">
<path d="M5.48113 25H3C1.89543 25 1 24.1046 1 23V13.747C1 12.6424 1.89543 11.747 3 11.747H5.48113M5.48113 25V11.747M5.48113 25H17.7453H20.2264C21.331 25 22.2264 24.1046 22.2264 23V21.6867M5.48113 11.747L10.1873 11.4738C10.5084 11.4552 10.8295 11.4087 11.1428 11.336V11.336C12.5019 11.0204 13.7054 10.2094 14.5025 9.06424V9.06424C14.9305 8.44928 15.2315 7.75512 15.388 7.02239L15.502 6.48874C15.7372 5.38718 15.7469 4.24939 15.5305 3.14397L15.1509 1.20482V1.20482C16.5922 0.535486 18.3162 1.16656 19.0147 2.59391V2.59391C19.7056 4.00558 19.8194 5.65458 19.3129 7.14237L17.7453 11.747H21.9849C22.8998 11.747 23.6415 12.4887 23.6415 13.4036V13.4036C23.6415 14.3185 22.8998 15.0602 21.9849 15.0602H17.7453H24.3434C25.2583 15.0602 26 15.8019 26 16.7169V16.9584C26 17.7399 25.3664 18.3735 24.5849 18.3735V18.3735M20.1038 18.3735H22.2264H24.5849M24.5849 18.3735V19.6867C24.5849 20.7913 23.6895 21.6867 22.5849 21.6867H22.2264M17.7453 21.6867H22.2264" stroke="black"/>
</svg>
