<svg width="18" height="21" viewBox="0 0 18 21" fill="none" xmlns="http://www.w3.org/2000/svg">
<path d="M14.9999 2.47991C13.4086 0.888611 11.2504 -0.00537111 8.99993 -0.00537109C6.74949 -0.00537108 4.59123 0.888611 2.99993 2.47991C1.40863 4.07121 0.514648 6.22947 0.514648 8.47991C0.514648 10.7303 1.40863 12.8886 2.99993 14.4799L8.26993 19.7599C8.36289 19.8536 8.47349 19.928 8.59535 19.9788C8.71721 20.0296 8.84792 20.0557 8.97993 20.0557C9.11194 20.0557 9.24265 20.0296 9.36451 19.9788C9.48637 19.928 9.59697 19.8536 9.68993 19.7599L14.9999 14.4299C16.5846 12.8452 17.4748 10.696 17.4748 8.45491C17.4748 6.21386 16.5846 4.06459 14.9999 2.47991ZM13.5699 12.9999L8.99993 17.5899L4.42993 12.9999C3.52707 12.0962 2.91241 10.9452 2.66362 9.6922C2.41484 8.43925 2.54312 7.14066 3.03223 5.96059C3.52135 4.78052 4.34935 3.77196 5.41156 3.06239C6.47377 2.35281 7.72251 1.97409 8.99993 1.97409C10.2773 1.97409 11.5261 2.35281 12.5883 3.06239C13.6505 3.77196 14.4785 4.78052 14.9676 5.96059C15.4567 7.14066 15.585 8.43925 15.3362 9.6922C15.0875 10.9452 14.4728 12.0962 13.5699 12.9999ZM5.99993 5.40991C5.19264 6.21968 4.73932 7.31648 4.73932 8.45991C4.73932 9.60334 5.19264 10.7001 5.99993 11.5099C6.59969 12.1107 7.36352 12.521 8.19558 12.6893C9.02764 12.8576 9.89088 12.7765 10.677 12.4561C11.4631 12.1356 12.1371 11.5902 12.6144 10.8882C13.0917 10.1861 13.3511 9.35878 13.3599 8.50991C13.3644 7.94311 13.2553 7.38117 13.0388 6.8573C12.8224 6.33343 12.5032 5.85827 12.0999 5.45991C11.7036 5.05449 11.231 4.73145 10.7094 4.50938C10.1877 4.2873 9.62727 4.17059 9.06033 4.16594C8.49339 4.16129 7.93113 4.26881 7.4059 4.4823C6.88067 4.69579 6.40285 5.01104 5.99993 5.40991ZM10.6899 10.0899C10.311 10.4747 9.81014 10.7158 9.27306 10.7722C8.73597 10.8285 8.19599 10.6966 7.74544 10.3988C7.29488 10.1011 6.96173 9.65615 6.80294 9.13999C6.64415 8.62384 6.66958 8.06855 6.87489 7.56907C7.0802 7.06958 7.45263 6.65693 7.92851 6.40165C8.4044 6.14637 8.95418 6.06432 9.48387 6.16953C10.0135 6.27474 10.4902 6.56067 10.8324 6.97844C11.1746 7.39621 11.3611 7.91988 11.3599 8.45991C11.3454 9.07718 11.0864 9.66344 10.6399 10.0899H10.6899Z" fill="#A53DFF"/>
</svg>
