<svg width="25" height="24" viewBox="0 0 25 24" fill="none" xmlns="http://www.w3.org/2000/svg">
<path d="M16.3077 20.7793L22.0873 19.7681C24.2562 19.3886 24.6686 16.4535 22.6883 15.4911V15.4911C21.8933 15.1047 21.395 14.292 21.4111 13.4082L21.5018 8.44966C21.5341 6.68577 20.6344 5.03543 19.1344 4.10687L15.0613 1.58555C13.4857 0.610185 11.4999 0.586242 9.90118 1.52333L5.62379 4.03056C3.97984 4.99418 3.02653 6.80847 3.16557 8.70896L3.5043 13.339C3.57138 14.2559 3.0729 15.1211 2.24604 15.523V15.523C0.286335 16.4754 0.694444 19.38 2.84073 19.7555L8.69231 20.7793M16.3077 20.7793H8.69231M16.3077 20.7793V20.7793C16.6809 21.8677 15.8722 23 14.7216 23H10.1694C9.0251 23 8.24997 21.8347 8.69231 20.7793V20.7793" stroke="black"/>
</svg>
