<svg width="32" height="32" viewBox="0 0 32 32" fill="none" xmlns="http://www.w3.org/2000/svg">
<path d="M6 27.7188L9.24431 29.3916C10.1071 29.8365 11.0302 30.1534 11.9843 30.3323L13.9007 30.6916C14.9896 30.8958 16.1049 30.9176 17.201 30.7561L19.4934 30.4184C21.0805 30.1846 22.5881 29.5723 23.8889 28.6333L26.4545 26.7812M6 27.7188L3.27273 23.0312V23.0312C1.79868 19.687 1.46654 15.9505 2.32758 12.3987L2.51619 11.6207C2.71661 10.794 3.02714 9.9979 3.43944 9.25382L3.80204 8.59944C4.3542 7.60297 5.07256 6.70818 5.92612 5.9537L6.70839 5.26223C7.44424 4.61179 8.27189 4.0733 9.16469 3.6641L11.9091 2.40625L13.747 1.83766C15.5172 1.29001 17.4047 1.24496 19.199 1.70755L21.764 2.36885C24.1956 2.99573 26.3023 4.51445 27.6655 6.62322L28.7849 8.35471C29.6433 9.68263 30.1746 11.1952 30.3352 12.7682L30.6598 15.9481C30.8806 18.1111 30.3904 20.2872 29.2634 22.1466L26.4545 26.7812M6 27.7188L7.22881 23.9171C7.61654 22.7176 8.27457 21.6231 9.15217 20.7181V20.7181C9.77385 20.077 10.4957 19.5413 11.2894 19.132L13.7273 17.875M26.4545 26.7812L25.9451 24.6797C25.6806 23.5885 25.2341 22.5497 24.6246 21.6067L24.2764 21.0682C23.9125 20.5052 23.4641 20.0017 22.9471 19.5751V19.5751C21.973 18.7714 20.7869 18.2672 19.5322 18.1235L17.3636 17.875H13.7273M13.7273 17.875L12.1232 15.1181C11.4084 13.8894 11.2498 12.4148 11.687 11.0622L11.7258 10.9422C12.1322 9.68465 13.0476 8.65527 14.249 8.10462V8.10462C15.6332 7.4702 17.2385 7.54289 18.5597 8.29982L18.6819 8.36983C19.8715 9.0514 20.7284 10.1923 21.0515 11.5248L21.0713 11.6065C21.3208 12.6358 21.2493 13.7168 20.8663 14.7042L19.6364 17.875" stroke="white" stroke-width="2"/>
</svg>
