<svg width="32" height="25" viewBox="0 0 32 25" fill="none" xmlns="http://www.w3.org/2000/svg">
<path d="M20.0435 14.7831H3C1.89543 14.7831 1 13.8877 1 12.7831V3C1 1.89543 1.89543 1 3 1H29C30.1046 1 31 1.89543 31 3V12.7831C31 13.8877 30.1046 14.7831 29 14.7831H25.5217M20.0435 14.7831L27.087 23L25.5217 14.7831M20.0435 14.7831H25.5217M15 6.88372L14.8616 6.5297C14.6916 6.09471 14.6634 5.61709 14.7812 5.16514L14.8629 4.85179C14.951 4.5135 15.1636 4.22095 15.4581 4.03261V4.03261C15.6814 3.88983 15.944 3.81395 16.2091 3.81395V3.81395C16.895 3.81395 17.4938 4.30068 17.6235 4.9742L17.665 5.18983C17.6854 5.29559 17.6957 5.40306 17.6957 5.51077V5.52703C17.6957 6.02269 17.4986 6.49801 17.1479 6.84825L16.968 7.02782C16.7253 7.2702 16.5355 7.5603 16.4106 7.87977L16.3893 7.93422C16.2642 8.25433 16.2 8.59499 16.2 8.93868V10.4651M16.2 12.5116V11.4884V12" stroke="white"/>
</svg>
