<svg width="44" height="42" viewBox="0 0 44 42" fill="none" xmlns="http://www.w3.org/2000/svg">
<path d="M20.3023 19.7674L20.0298 19.0451C19.7045 18.183 19.6507 17.242 19.8754 16.3484L20.0481 15.6618C20.2117 15.0116 20.6121 14.4459 21.171 14.0755V14.0755C21.6116 13.7836 22.1313 13.6279 22.6598 13.6279V13.6279C23.9737 13.6279 25.1091 14.5648 25.3492 15.8565L25.4486 16.3913C25.4865 16.5951 25.5056 16.802 25.5056 17.0093V17.0513C25.5056 18.0463 25.1191 19.0023 24.4276 19.7178L24.1061 20.0505C23.6342 20.5388 23.267 21.1185 23.0273 21.7539L22.9405 21.9841C22.7276 22.5482 22.6186 23.1461 22.6186 23.749V26.9302M22.6186 31.0233V28.9767V30M41.8712 20.2665L40.241 13.6017C39.8241 11.8973 38.9661 10.3325 37.7531 9.06466L32.9908 4.08701C31.1044 2.11521 28.494 1 25.7651 1H18.1061C15.2098 1 12.4558 2.25573 10.5565 4.44234L6.18957 9.46983C5.31242 10.4797 4.64677 11.6552 4.23204 12.9269L2.09379 19.4834C1.38597 21.6537 1.44205 24.0009 2.25271 26.135L4.02252 30.7941C4.57358 32.2448 5.45471 33.5473 6.59617 34.5986L10.6753 38.3556C12.5216 40.056 14.9399 41 17.4499 41H26.4074C28.7525 41 31.0231 40.1758 32.8222 38.6714L37.2449 34.9732C38.7825 33.6875 39.8983 31.9693 40.4475 30.0417L41.7749 25.3824C42.2501 23.7143 42.2833 21.9513 41.8712 20.2665Z" stroke="black" stroke-width="2"/>
</svg>
